<?xml version="1.0" standalone="no"?>
<!DOCTYPE svg PUBLIC "-//W3C//DTD SVG 20010904//EN"
 "http://www.w3.org/TR/2001/REC-SVG-20010904/DTD/svg10.dtd">
<svg version="1.0" xmlns="http://www.w3.org/2000/svg"
 width="136.000000pt" height="101.000000pt" viewBox="0 0 136.000000 101.000000"
 preserveAspectRatio="xMidYMid meet">

<g transform="translate(0.000000,101.000000) scale(0.100000,-0.100000)"
fill="#000000" stroke="none">
<path d="M0 505 l0 -505 94 0 95 0 3 238 c3 217 5 240 23 272 42 72 140 92
197 41 l33 -29 3 -261 3 -261 95 0 96 0 -4 278 c-3 272 -3 278 -28 327 -37 75
-90 107 -183 113 -88 5 -130 -7 -192 -54 l-45 -34 0 190 0 190 -95 0 -95 0 0
-505z"/>
<path d="M730 505 l0 -505 89 0 89 0 4 227 c4 251 11 283 71 327 40 29 128 29
157 0 33 -33 40 -83 40 -326 l0 -228 91 0 90 0 -3 288 -3 287 -27 47 c-38 64
-107 98 -197 98 -72 0 -150 -29 -185 -69 -11 -11 -23 -21 -28 -21 -4 0 -8 86
-8 190 l0 190 -90 0 -90 0 0 -505z"/>
</g>
</svg>
